<?xml version="1.0" encoding="utf-8" standalone="no"?>
<!DOCTYPE svg PUBLIC "-//W3C//DTD SVG 1.1//EN"
  "http://www.w3.org/Graphics/SVG/1.1/DTD/svg11.dtd">
<svg height="345.6pt" version="1.1" viewBox="0 0 460.8 345.6" width="460.8pt" xmlns="http://www.w3.org/2000/svg" xmlns:xlink="http://www.w3.org/1999/xlink">
 <metadata>
  <rdf:RDF xmlns:cc="http://creativecommons.org/ns#" xmlns:dc="http://purl.org/dc/elements/1.1/" xmlns:rdf="http://www.w3.org/1999/02/22-rdf-syntax-ns#">
   <cc:Work>
    <dc:type rdf:resource="http://purl.org/dc/dcmitype/StillImage"/>
    <dc:date>2021-04-09T15:22:58.735888</dc:date>
    <dc:format>image/svg+xml</dc:format>
    <dc:creator>
     <cc:Agent>
      <dc:title>Matplotlib v3.4.1, https://matplotlib.org/</dc:title>
     </cc:Agent>
    </dc:creator>
   </cc:Work>
  </rdf:RDF>
 </metadata>
 <defs>
  <style type="text/css">*{stroke-linecap:butt;stroke-linejoin:round;}</style>
 </defs>
 <g id="figure_1">
  <g id="patch_1">
   <path d="M 0 345.6 
L 460.8 345.6 
L 460.8 0 
L 0 0 
z
" style="fill:#ffffff;"/>
  </g>
  <g id="axes_1">
   <g id="patch_2">
    <path d="M 57.6 307.584 
L 414.72 307.584 
L 414.72 41.472 
L 57.6 41.472 
z
" style="fill:#ffffff;"/>
   </g>
   <g id="patch_3">
    <path clip-path="url(#pe55c0e5bdd)" d="M 73.832727 307.584 
L 74.848066 307.584 
L 74.848066 116.749807 
L 73.832727 116.749807 
z
" style="fill:#9932cc;"/>
   </g>
   <g id="patch_4">
    <path clip-path="url(#pe55c0e5bdd)" d="M 75.101901 307.584 
L 76.117239 307.584 
L 76.117239 293.688942 
L 75.101901 293.688942 
z
" style="fill:#9932cc;"/>
   </g>
   <g id="patch_5">
    <path clip-path="url(#pe55c0e5bdd)" d="M 76.371074 307.584 
L 77.386413 307.584 
L 77.386413 302.007631 
L 76.371074 302.007631 
z
" style="fill:#9932cc;"/>
   </g>
   <g id="patch_6">
    <path clip-path="url(#pe55c0e5bdd)" d="M 77.640247 307.584 
L 78.655586 307.584 
L 78.655586 299.920006 
L 77.640247 299.920006 
z
" style="fill:#9932cc;"/>
   </g>
   <g id="patch_7">
    <path clip-path="url(#pe55c0e5bdd)" d="M 78.909421 307.584 
L 79.924759 307.584 
L 79.924759 301.18057 
L 78.909421 301.18057 
z
" style="fill:#9932cc;"/>
   </g>
   <g id="patch_8">
    <path clip-path="url(#pe55c0e5bdd)" d="M 80.178594 307.584 
L 81.193933 307.584 
L 81.193933 301.216079 
L 80.178594 301.216079 
z
" style="fill:#9932cc;"/>
   </g>
   <g id="patch_9">
    <path clip-path="url(#pe55c0e5bdd)" d="M 81.447767 307.584 
L 82.463106 307.584 
L 82.463106 304.609394 
L 81.447767 304.609394 
z
" style="fill:#9932cc;"/>
   </g>
   <g id="patch_10">
    <path clip-path="url(#pe55c0e5bdd)" d="M 82.716941 307.584 
L 83.732279 307.584 
L 83.732279 304.791377 
L 82.716941 304.791377 
z
" style="fill:#9932cc;"/>
   </g>
   <g id="patch_11">
    <path clip-path="url(#pe55c0e5bdd)" d="M 83.986114 307.584 
L 85.001453 307.584 
L 85.001453 302.873159 
L 83.986114 302.873159 
z
" style="fill:#9932cc;"/>
   </g>
   <g id="patch_12">
    <path clip-path="url(#pe55c0e5bdd)" d="M 85.255288 307.584 
L 86.270626 307.584 
L 86.270626 305.32253 
L 85.255288 305.32253 
z
" style="fill:#9932cc;"/>
   </g>
   <g id="patch_13">
    <path clip-path="url(#pe55c0e5bdd)" d="M 86.524461 307.584 
L 87.5398 307.584 
L 87.5398 297.341915 
L 86.524461 297.341915 
z
" style="fill:#9932cc;"/>
   </g>
   <g id="patch_14">
    <path clip-path="url(#pe55c0e5bdd)" d="M 87.793634 307.584 
L 88.808973 307.584 
L 88.808973 304.923055 
L 87.793634 304.923055 
z
" style="fill:#9932cc;"/>
   </g>
   <g id="patch_15">
    <path clip-path="url(#pe55c0e5bdd)" d="M 89.062808 307.584 
L 90.078146 307.584 
L 90.078146 305.406124 
L 89.062808 305.406124 
z
" style="fill:#9932cc;"/>
   </g>
   <g id="patch_16">
    <path clip-path="url(#pe55c0e5bdd)" d="M 90.331981 307.584 
L 91.34732 307.584 
L 91.34732 298.882851 
L 90.331981 298.882851 
z
" style="fill:#9932cc;"/>
   </g>
   <g id="patch_17">
    <path clip-path="url(#pe55c0e5bdd)" d="M 91.601154 307.584 
L 92.616493 307.584 
L 92.616493 305.931359 
L 91.601154 305.931359 
z
" style="fill:#9932cc;"/>
   </g>
   <g id="patch_18">
    <path clip-path="url(#pe55c0e5bdd)" d="M 92.870328 307.584 
L 93.885666 307.584 
L 93.885666 306.146631 
L 92.870328 306.146631 
z
" style="fill:#9932cc;"/>
   </g>
   <g id="patch_19">
    <path clip-path="url(#pe55c0e5bdd)" d="M 94.139501 307.584 
L 95.15484 307.584 
L 95.15484 304.628628 
L 94.139501 304.628628 
z
" style="fill:#9932cc;"/>
   </g>
   <g id="patch_20">
    <path clip-path="url(#pe55c0e5bdd)" d="M 95.408674 307.584 
L 96.424013 307.584 
L 96.424013 304.644903 
L 95.408674 304.644903 
z
" style="fill:#9932cc;"/>
   </g>
   <g id="patch_21">
    <path clip-path="url(#pe55c0e5bdd)" d="M 96.677848 307.584 
L 97.693186 307.584 
L 97.693186 305.677618 
L 96.677848 305.677618 
z
" style="fill:#9932cc;"/>
   </g>
   <g id="patch_22">
    <path clip-path="url(#pe55c0e5bdd)" d="M 97.947021 307.584 
L 98.96236 307.584 
L 98.96236 306.545366 
L 97.947021 306.545366 
z
" style="fill:#9932cc;"/>
   </g>
   <g id="patch_23">
    <path clip-path="url(#pe55c0e5bdd)" d="M 99.216194 307.584 
L 100.231533 307.584 
L 100.231533 306.481746 
L 99.216194 306.481746 
z
" style="fill:#9932cc;"/>
   </g>
   <g id="patch_24">
    <path clip-path="url(#pe55c0e5bdd)" d="M 100.485368 307.584 
L 101.500707 307.584 
L 101.500707 306.384836 
L 100.485368 306.384836 
z
" style="fill:#9932cc;"/>
   </g>
   <g id="patch_25">
    <path clip-path="url(#pe55c0e5bdd)" d="M 101.754541 307.584 
L 102.76988 307.584 
L 102.76988 305.644329 
L 101.754541 305.644329 
z
" style="fill:#9932cc;"/>
   </g>
   <g id="patch_26">
    <path clip-path="url(#pe55c0e5bdd)" d="M 103.023715 307.584 
L 104.039053 307.584 
L 104.039053 306.793928 
L 103.023715 306.793928 
z
" style="fill:#9932cc;"/>
   </g>
   <g id="patch_27">
    <path clip-path="url(#pe55c0e5bdd)" d="M 104.292888 307.584 
L 105.308227 307.584 
L 105.308227 306.62896 
L 104.292888 306.62896 
z
" style="fill:#9932cc;"/>
   </g>
   <g id="patch_28">
    <path clip-path="url(#pe55c0e5bdd)" d="M 105.562061 307.584 
L 106.5774 307.584 
L 106.5774 306.665948 
L 105.562061 306.665948 
z
" style="fill:#9932cc;"/>
   </g>
   <g id="patch_29">
    <path clip-path="url(#pe55c0e5bdd)" d="M 106.831235 307.584 
L 107.846573 307.584 
L 107.846573 306.810943 
L 106.831235 306.810943 
z
" style="fill:#9932cc;"/>
   </g>
   <g id="patch_30">
    <path clip-path="url(#pe55c0e5bdd)" d="M 108.100408 307.584 
L 109.115747 307.584 
L 109.115747 306.748062 
L 108.100408 306.748062 
z
" style="fill:#9932cc;"/>
   </g>
   <g id="patch_31">
    <path clip-path="url(#pe55c0e5bdd)" d="M 109.369581 307.584 
L 110.38492 307.584 
L 110.38492 306.4995 
L 109.369581 306.4995 
z
" style="fill:#9932cc;"/>
   </g>
   <g id="patch_32">
    <path clip-path="url(#pe55c0e5bdd)" d="M 110.638755 307.584 
L 111.654093 307.584 
L 111.654093 306.918209 
L 110.638755 306.918209 
z
" style="fill:#9932cc;"/>
   </g>
   <g id="patch_33">
    <path clip-path="url(#pe55c0e5bdd)" d="M 111.907928 307.584 
L 112.923267 307.584 
L 112.923267 306.987007 
L 111.907928 306.987007 
z
" style="fill:#9932cc;"/>
   </g>
   <g id="patch_34">
    <path clip-path="url(#pe55c0e5bdd)" d="M 113.177101 307.584 
L 114.19244 307.584 
L 114.19244 306.591232 
L 113.177101 306.591232 
z
" style="fill:#9932cc;"/>
   </g>
   <g id="patch_35">
    <path clip-path="url(#pe55c0e5bdd)" d="M 114.446275 307.584 
L 115.461613 307.584 
L 115.461613 191.495942 
L 114.446275 191.495942 
z
" style="fill:#9932cc;"/>
   </g>
   <g id="patch_36">
    <path clip-path="url(#pe55c0e5bdd)" d="M 115.715448 307.584 
L 116.730787 307.584 
L 116.730787 305.557036 
L 115.715448 305.557036 
z
" style="fill:#9932cc;"/>
   </g>
   <g id="patch_37">
    <path clip-path="url(#pe55c0e5bdd)" d="M 116.984622 307.584 
L 117.99996 307.584 
L 117.99996 217.831675 
L 116.984622 217.831675 
z
" style="fill:#9932cc;"/>
   </g>
   <g id="patch_38">
    <path clip-path="url(#pe55c0e5bdd)" d="M 118.253795 307.584 
L 119.269134 307.584 
L 119.269134 304.830584 
L 118.253795 304.830584 
z
" style="fill:#9932cc;"/>
   </g>
   <g id="patch_39">
    <path clip-path="url(#pe55c0e5bdd)" d="M 119.522968 307.584 
L 120.538307 307.584 
L 120.538307 304.641944 
L 119.522968 304.641944 
z
" style="fill:#9932cc;"/>
   </g>
   <g id="patch_40">
    <path clip-path="url(#pe55c0e5bdd)" d="M 120.792142 307.584 
L 121.80748 307.584 
L 121.80748 299.689198 
L 120.792142 299.689198 
z
" style="fill:#9932cc;"/>
   </g>
   <g id="patch_41">
    <path clip-path="url(#pe55c0e5bdd)" d="M 122.061315 307.584 
L 123.076654 307.584 
L 123.076654 295.174396 
L 122.061315 295.174396 
z
" style="fill:#9932cc;"/>
   </g>
   <g id="patch_42">
    <path clip-path="url(#pe55c0e5bdd)" d="M 123.330488 307.584 
L 124.345827 307.584 
L 124.345827 304.136682 
L 123.330488 304.136682 
z
" style="fill:#9932cc;"/>
   </g>
   <g id="patch_43">
    <path clip-path="url(#pe55c0e5bdd)" d="M 124.599662 307.584 
L 125.615 307.584 
L 125.615 298.305093 
L 124.599662 298.305093 
z
" style="fill:#9932cc;"/>
   </g>
   <g id="patch_44">
    <path clip-path="url(#pe55c0e5bdd)" d="M 125.868835 307.584 
L 126.884174 307.584 
L 126.884174 302.523988 
L 125.868835 302.523988 
z
" style="fill:#9932cc;"/>
   </g>
   <g id="patch_45">
    <path clip-path="url(#pe55c0e5bdd)" d="M 127.138008 307.584 
L 128.153347 307.584 
L 128.153347 304.880149 
L 127.138008 304.880149 
z
" style="fill:#9932cc;"/>
   </g>
   <g id="patch_46">
    <path clip-path="url(#pe55c0e5bdd)" d="M 128.407182 307.584 
L 129.42252 307.584 
L 129.42252 305.082105 
L 128.407182 305.082105 
z
" style="fill:#9932cc;"/>
   </g>
   <g id="patch_47">
    <path clip-path="url(#pe55c0e5bdd)" d="M 129.676355 307.584 
L 130.691694 307.584 
L 130.691694 174.840811 
L 129.676355 174.840811 
z
" style="fill:#9932cc;"/>
   </g>
   <g id="patch_48">
    <path clip-path="url(#pe55c0e5bdd)" d="M 130.945528 307.584 
L 131.960867 307.584 
L 131.960867 278.410518 
L 130.945528 278.410518 
z
" style="fill:#9932cc;"/>
   </g>
   <g id="patch_49">
    <path clip-path="url(#pe55c0e5bdd)" d="M 132.214702 307.584 
L 133.230041 307.584 
L 133.230041 254.99095 
L 132.214702 254.99095 
z
" style="fill:#9932cc;"/>
   </g>
   <g id="patch_50">
    <path clip-path="url(#pe55c0e5bdd)" d="M 133.483875 307.584 
L 134.499214 307.584 
L 134.499214 262.371613 
L 133.483875 262.371613 
z
" style="fill:#9932cc;"/>
   </g>
   <g id="patch_51">
    <path clip-path="url(#pe55c0e5bdd)" d="M 134.753049 307.584 
L 135.768387 307.584 
L 135.768387 263.608505 
L 134.753049 263.608505 
z
" style="fill:#9932cc;"/>
   </g>
   <g id="patch_52">
    <path clip-path="url(#pe55c0e5bdd)" d="M 136.022222 307.584 
L 137.037561 307.584 
L 137.037561 260.872104 
L 136.022222 260.872104 
z
" style="fill:#9932cc;"/>
   </g>
   <g id="patch_53">
    <path clip-path="url(#pe55c0e5bdd)" d="M 137.291395 307.584 
L 138.306734 307.584 
L 138.306734 269.508153 
L 137.291395 269.508153 
z
" style="fill:#9932cc;"/>
   </g>
   <g id="patch_54">
    <path clip-path="url(#pe55c0e5bdd)" d="M 138.560569 307.584 
L 139.575907 307.584 
L 139.575907 283.269313 
L 138.560569 283.269313 
z
" style="fill:#9932cc;"/>
   </g>
   <g id="patch_55">
    <path clip-path="url(#pe55c0e5bdd)" d="M 139.829742 307.584 
L 140.845081 307.584 
L 140.845081 284.380444 
L 139.829742 284.380444 
z
" style="fill:#9932cc;"/>
   </g>
   <g id="patch_56">
    <path clip-path="url(#pe55c0e5bdd)" d="M 141.098915 307.584 
L 142.114254 307.584 
L 142.114254 287.181945 
L 141.098915 287.181945 
z
" style="fill:#9932cc;"/>
   </g>
   <g id="patch_57">
    <path clip-path="url(#pe55c0e5bdd)" d="M 142.368089 307.584 
L 143.383427 307.584 
L 143.383427 288.469141 
L 142.368089 288.469141 
z
" style="fill:#9932cc;"/>
   </g>
   <g id="patch_58">
    <path clip-path="url(#pe55c0e5bdd)" d="M 143.637262 307.584 
L 144.652601 307.584 
L 144.652601 295.240235 
L 143.637262 295.240235 
z
" style="fill:#9932cc;"/>
   </g>
   <g id="patch_59">
    <path clip-path="url(#pe55c0e5bdd)" d="M 144.906435 307.584 
L 145.921774 307.584 
L 145.921774 292.474243 
L 144.906435 292.474243 
z
" style="fill:#9932cc;"/>
   </g>
   <g id="patch_60">
    <path clip-path="url(#pe55c0e5bdd)" d="M 146.175609 307.584 
L 147.190947 307.584 
L 147.190947 287.624326 
L 146.175609 287.624326 
z
" style="fill:#9932cc;"/>
   </g>
   <g id="patch_61">
    <path clip-path="url(#pe55c0e5bdd)" d="M 147.444782 307.584 
L 148.460121 307.584 
L 148.460121 295.25503 
L 147.444782 295.25503 
z
" style="fill:#9932cc;"/>
   </g>
   <g id="patch_62">
    <path clip-path="url(#pe55c0e5bdd)" d="M 148.713956 307.584 
L 149.729294 307.584 
L 149.729294 301.771645 
L 148.713956 301.771645 
z
" style="fill:#9932cc;"/>
   </g>
   <g id="patch_63">
    <path clip-path="url(#pe55c0e5bdd)" d="M 149.983129 307.584 
L 150.998468 307.584 
L 150.998468 299.39773 
L 149.983129 299.39773 
z
" style="fill:#9932cc;"/>
   </g>
   <g id="patch_64">
    <path clip-path="url(#pe55c0e5bdd)" d="M 151.252302 307.584 
L 152.267641 307.584 
L 152.267641 272.211264 
L 151.252302 272.211264 
z
" style="fill:#9932cc;"/>
   </g>
   <g id="patch_65">
    <path clip-path="url(#pe55c0e5bdd)" d="M 152.521476 307.584 
L 153.536814 307.584 
L 153.536814 302.04018 
L 152.521476 302.04018 
z
" style="fill:#9932cc;"/>
   </g>
   <g id="patch_66">
    <path clip-path="url(#pe55c0e5bdd)" d="M 153.790649 307.584 
L 154.805988 307.584 
L 154.805988 294.732015 
L 153.790649 294.732015 
z
" style="fill:#9932cc;"/>
   </g>
   <g id="patch_67">
    <path clip-path="url(#pe55c0e5bdd)" d="M 155.059822 307.584 
L 156.075161 307.584 
L 156.075161 304.573145 
L 155.059822 304.573145 
z
" style="fill:#9932cc;"/>
   </g>
   <g id="patch_68">
    <path clip-path="url(#pe55c0e5bdd)" d="M 156.328996 307.584 
L 157.344334 307.584 
L 157.344334 281.592999 
L 156.328996 281.592999 
z
" style="fill:#9932cc;"/>
   </g>
   <g id="patch_69">
    <path clip-path="url(#pe55c0e5bdd)" d="M 157.598169 307.584 
L 158.613508 307.584 
L 158.613508 292.031122 
L 157.598169 292.031122 
z
" style="fill:#9932cc;"/>
   </g>
   <g id="patch_70">
    <path clip-path="url(#pe55c0e5bdd)" d="M 158.867342 307.584 
L 159.882681 307.584 
L 159.882681 283.647334 
L 158.867342 283.647334 
z
" style="fill:#9932cc;"/>
   </g>
   <g id="patch_71">
    <path clip-path="url(#pe55c0e5bdd)" d="M 160.136516 307.584 
L 161.151854 307.584 
L 161.151854 289.230362 
L 160.136516 289.230362 
z
" style="fill:#9932cc;"/>
   </g>
   <g id="patch_72">
    <path clip-path="url(#pe55c0e5bdd)" d="M 161.405689 307.584 
L 162.421028 307.584 
L 162.421028 277.019755 
L 161.405689 277.019755 
z
" style="fill:#9932cc;"/>
   </g>
   <g id="patch_73">
    <path clip-path="url(#pe55c0e5bdd)" d="M 162.674862 307.584 
L 163.690201 307.584 
L 163.690201 295.245413 
L 162.674862 295.245413 
z
" style="fill:#9932cc;"/>
   </g>
   <g id="patch_74">
    <path clip-path="url(#pe55c0e5bdd)" d="M 163.944036 307.584 
L 164.959375 307.584 
L 164.959375 298.527763 
L 163.944036 298.527763 
z
" style="fill:#9932cc;"/>
   </g>
   <g id="patch_75">
    <path clip-path="url(#pe55c0e5bdd)" d="M 165.213209 307.584 
L 166.228548 307.584 
L 166.228548 300.380141 
L 165.213209 300.380141 
z
" style="fill:#9932cc;"/>
   </g>
   <g id="patch_76">
    <path clip-path="url(#pe55c0e5bdd)" d="M 166.482383 307.584 
L 167.497721 307.584 
L 167.497721 292.830811 
L 166.482383 292.830811 
z
" style="fill:#9932cc;"/>
   </g>
   <g id="patch_77">
    <path clip-path="url(#pe55c0e5bdd)" d="M 167.751556 307.584 
L 168.766895 307.584 
L 168.766895 304.152957 
L 167.751556 304.152957 
z
" style="fill:#9932cc;"/>
   </g>
   <g id="patch_78">
    <path clip-path="url(#pe55c0e5bdd)" d="M 169.020729 307.584 
L 170.036068 307.584 
L 170.036068 304.292773 
L 169.020729 304.292773 
z
" style="fill:#9932cc;"/>
   </g>
   <g id="patch_79">
    <path clip-path="url(#pe55c0e5bdd)" d="M 170.289903 307.584 
L 171.305241 307.584 
L 171.305241 295.906026 
L 170.289903 295.906026 
z
" style="fill:#9932cc;"/>
   </g>
   <g id="patch_80">
    <path clip-path="url(#pe55c0e5bdd)" d="M 171.559076 307.584 
L 172.574415 307.584 
L 172.574415 291.089398 
L 171.559076 291.089398 
z
" style="fill:#9932cc;"/>
   </g>
   <g id="patch_81">
    <path clip-path="url(#pe55c0e5bdd)" d="M 172.828249 307.584 
L 173.843588 307.584 
L 173.843588 295.087103 
L 172.828249 295.087103 
z
" style="fill:#9932cc;"/>
   </g>
   <g id="patch_82">
    <path clip-path="url(#pe55c0e5bdd)" d="M 174.097423 307.584 
L 175.112761 307.584 
L 175.112761 293.401912 
L 174.097423 293.401912 
z
" style="fill:#9932cc;"/>
   </g>
   <g id="patch_83">
    <path clip-path="url(#pe55c0e5bdd)" d="M 175.366596 307.584 
L 176.381935 307.584 
L 176.381935 291.586522 
L 175.366596 291.586522 
z
" style="fill:#9932cc;"/>
   </g>
   <g id="patch_84">
    <path clip-path="url(#pe55c0e5bdd)" d="M 176.635769 307.584 
L 177.651108 307.584 
L 177.651108 304.860175 
L 176.635769 304.860175 
z
" style="fill:#9932cc;"/>
   </g>
   <g id="patch_85">
    <path clip-path="url(#pe55c0e5bdd)" d="M 177.904943 307.584 
L 178.920281 307.584 
L 178.920281 294.686149 
L 177.904943 294.686149 
z
" style="fill:#9932cc;"/>
   </g>
   <g id="patch_86">
    <path clip-path="url(#pe55c0e5bdd)" d="M 179.174116 307.584 
L 180.189455 307.584 
L 180.189455 279.747279 
L 179.174116 279.747279 
z
" style="fill:#9932cc;"/>
   </g>
   <g id="patch_87">
    <path clip-path="url(#pe55c0e5bdd)" d="M 180.44329 307.584 
L 181.458628 307.584 
L 181.458628 281.703225 
L 180.44329 281.703225 
z
" style="fill:#9932cc;"/>
   </g>
   <g id="patch_88">
    <path clip-path="url(#pe55c0e5bdd)" d="M 181.712463 307.584 
L 182.727802 307.584 
L 182.727802 294.858515 
L 181.712463 294.858515 
z
" style="fill:#9932cc;"/>
   </g>
   <g id="patch_89">
    <path clip-path="url(#pe55c0e5bdd)" d="M 182.981636 307.584 
L 183.996975 307.584 
L 183.996975 302.430038 
L 182.981636 302.430038 
z
" style="fill:#9932cc;"/>
   </g>
   <g id="patch_90">
    <path clip-path="url(#pe55c0e5bdd)" d="M 184.25081 307.584 
L 185.266148 307.584 
L 185.266148 301.376609 
L 184.25081 301.376609 
z
" style="fill:#9932cc;"/>
   </g>
   <g id="patch_91">
    <path clip-path="url(#pe55c0e5bdd)" d="M 185.519983 307.584 
L 186.535322 307.584 
L 186.535322 303.239344 
L 185.519983 303.239344 
z
" style="fill:#9932cc;"/>
   </g>
   <g id="patch_92">
    <path clip-path="url(#pe55c0e5bdd)" d="M 186.789156 307.584 
L 187.804495 307.584 
L 187.804495 304.706303 
L 186.789156 304.706303 
z
" style="fill:#9932cc;"/>
   </g>
   <g id="patch_93">
    <path clip-path="url(#pe55c0e5bdd)" d="M 188.05833 307.584 
L 189.073668 307.584 
L 189.073668 304.604955 
L 188.05833 304.604955 
z
" style="fill:#9932cc;"/>
   </g>
   <g id="patch_94">
    <path clip-path="url(#pe55c0e5bdd)" d="M 189.327503 307.584 
L 190.342842 307.584 
L 190.342842 305.431276 
L 189.327503 305.431276 
z
" style="fill:#9932cc;"/>
   </g>
   <g id="patch_95">
    <path clip-path="url(#pe55c0e5bdd)" d="M 190.596676 307.584 
L 191.612015 307.584 
L 191.612015 299.798684 
L 190.596676 299.798684 
z
" style="fill:#9932cc;"/>
   </g>
   <g id="patch_96">
    <path clip-path="url(#pe55c0e5bdd)" d="M 191.86585 307.584 
L 192.881188 307.584 
L 192.881188 305.260389 
L 191.86585 305.260389 
z
" style="fill:#9932cc;"/>
   </g>
   <g id="patch_97">
    <path clip-path="url(#pe55c0e5bdd)" d="M 193.135023 307.584 
L 194.150362 307.584 
L 194.150362 306.863466 
L 193.135023 306.863466 
z
" style="fill:#9932cc;"/>
   </g>
   <g id="patch_98">
    <path clip-path="url(#pe55c0e5bdd)" d="M 194.404196 307.584 
L 195.419535 307.584 
L 195.419535 270.88634 
L 194.404196 270.88634 
z
" style="fill:#9932cc;"/>
   </g>
   <g id="patch_99">
    <path clip-path="url(#pe55c0e5bdd)" d="M 195.67337 307.584 
L 196.688709 307.584 
L 196.688709 306.274611 
L 195.67337 306.274611 
z
" style="fill:#9932cc;"/>
   </g>
   <g id="patch_100">
    <path clip-path="url(#pe55c0e5bdd)" d="M 196.942543 307.584 
L 197.957882 307.584 
L 197.957882 111.692015 
L 196.942543 111.692015 
z
" style="fill:#9932cc;"/>
   </g>
   <g id="patch_101">
    <path clip-path="url(#pe55c0e5bdd)" d="M 198.211717 307.584 
L 199.227055 307.584 
L 199.227055 283.912171 
L 198.211717 283.912171 
z
" style="fill:#9932cc;"/>
   </g>
   <g id="patch_102">
    <path clip-path="url(#pe55c0e5bdd)" d="M 199.48089 307.584 
L 200.496229 307.584 
L 200.496229 180.089463 
L 199.48089 180.089463 
z
" style="fill:#9932cc;"/>
   </g>
   <g id="patch_103">
    <path clip-path="url(#pe55c0e5bdd)" d="M 200.750063 307.584 
L 201.765402 307.584 
L 201.765402 213.936058 
L 200.750063 213.936058 
z
" style="fill:#9932cc;"/>
   </g>
   <g id="patch_104">
    <path clip-path="url(#pe55c0e5bdd)" d="M 202.019237 307.584 
L 203.034575 307.584 
L 203.034575 54.144 
L 202.019237 54.144 
z
" style="fill:#9932cc;"/>
   </g>
   <g id="patch_105">
    <path clip-path="url(#pe55c0e5bdd)" d="M 203.28841 307.584 
L 204.303749 307.584 
L 204.303749 250.049301 
L 203.28841 250.049301 
z
" style="fill:#9932cc;"/>
   </g>
   <g id="patch_106">
    <path clip-path="url(#pe55c0e5bdd)" d="M 204.557583 307.584 
L 205.572922 307.584 
L 205.572922 274.793794 
L 204.557583 274.793794 
z
" style="fill:#9932cc;"/>
   </g>
   <g id="patch_107">
    <path clip-path="url(#pe55c0e5bdd)" d="M 205.826757 307.584 
L 206.842095 307.584 
L 206.842095 231.870988 
L 205.826757 231.870988 
z
" style="fill:#9932cc;"/>
   </g>
   <g id="patch_108">
    <path clip-path="url(#pe55c0e5bdd)" d="M 207.09593 307.584 
L 208.111269 307.584 
L 208.111269 132.000859 
L 207.09593 132.000859 
z
" style="fill:#9932cc;"/>
   </g>
   <g id="patch_109">
    <path clip-path="url(#pe55c0e5bdd)" d="M 208.365103 307.584 
L 209.380442 307.584 
L 209.380442 298.766708 
L 208.365103 298.766708 
z
" style="fill:#9932cc;"/>
   </g>
   <g id="patch_110">
    <path clip-path="url(#pe55c0e5bdd)" d="M 209.634277 307.584 
L 210.649615 307.584 
L 210.649615 295.434794 
L 209.634277 295.434794 
z
" style="fill:#9932cc;"/>
   </g>
   <g id="patch_111">
    <path clip-path="url(#pe55c0e5bdd)" d="M 210.90345 307.584 
L 211.918789 307.584 
L 211.918789 247.776735 
L 210.90345 247.776735 
z
" style="fill:#9932cc;"/>
   </g>
   <g id="patch_112">
    <path clip-path="url(#pe55c0e5bdd)" d="M 212.172623 307.584 
L 213.187962 307.584 
L 213.187962 258.828865 
L 212.172623 258.828865 
z
" style="fill:#9932cc;"/>
   </g>
   <g id="patch_113">
    <path clip-path="url(#pe55c0e5bdd)" d="M 213.441797 307.584 
L 214.457136 307.584 
L 214.457136 108.211407 
L 213.441797 108.211407 
z
" style="fill:#9932cc;"/>
   </g>
   <g id="patch_114">
    <path clip-path="url(#pe55c0e5bdd)" d="M 214.71097 307.584 
L 215.726309 307.584 
L 215.726309 174.234941 
L 214.71097 174.234941 
z
" style="fill:#9932cc;"/>
   </g>
   <g id="patch_115">
    <path clip-path="url(#pe55c0e5bdd)" d="M 215.980144 307.584 
L 216.995482 307.584 
L 216.995482 204.65937 
L 215.980144 204.65937 
z
" style="fill:#9932cc;"/>
   </g>
   <g id="patch_116">
    <path clip-path="url(#pe55c0e5bdd)" d="M 217.249317 307.584 
L 218.264656 307.584 
L 218.264656 303.013715 
L 217.249317 303.013715 
z
" style="fill:#9932cc;"/>
   </g>
   <g id="patch_117">
    <path clip-path="url(#pe55c0e5bdd)" d="M 218.51849 307.584 
L 219.533829 307.584 
L 219.533829 203.988401 
L 218.51849 203.988401 
z
" style="fill:#9932cc;"/>
   </g>
   <g id="patch_118">
    <path clip-path="url(#pe55c0e5bdd)" d="M 219.787664 307.584 
L 220.803002 307.584 
L 220.803002 139.490268 
L 219.787664 139.490268 
z
" style="fill:#9932cc;"/>
   </g>
   <g id="patch_119">
    <path clip-path="url(#pe55c0e5bdd)" d="M 221.056837 307.584 
L 222.072176 307.584 
L 222.072176 63.202456 
L 221.056837 63.202456 
z
" style="fill:#9932cc;"/>
   </g>
   <g id="patch_120">
    <path clip-path="url(#pe55c0e5bdd)" d="M 222.32601 307.584 
L 223.341349 307.584 
L 223.341349 272.859301 
L 222.32601 272.859301 
z
" style="fill:#9932cc;"/>
   </g>
   <g id="patch_121">
    <path clip-path="url(#pe55c0e5bdd)" d="M 223.595184 307.584 
L 224.610522 307.584 
L 224.610522 289.696415 
L 223.595184 289.696415 
z
" style="fill:#9932cc;"/>
   </g>
   <g id="patch_122">
    <path clip-path="url(#pe55c0e5bdd)" d="M 224.864357 307.584 
L 225.879696 307.584 
L 225.879696 257.273873 
L 224.864357 257.273873 
z
" style="fill:#9932cc;"/>
   </g>
   <g id="patch_123">
    <path clip-path="url(#pe55c0e5bdd)" d="M 226.13353 307.584 
L 227.148869 307.584 
L 227.148869 289.877658 
L 226.13353 289.877658 
z
" style="fill:#9932cc;"/>
   </g>
   <g id="patch_124">
    <path clip-path="url(#pe55c0e5bdd)" d="M 227.402704 307.584 
L 228.418043 307.584 
L 228.418043 288.302693 
L 227.402704 288.302693 
z
" style="fill:#9932cc;"/>
   </g>
   <g id="patch_125">
    <path clip-path="url(#pe55c0e5bdd)" d="M 228.671877 307.584 
L 229.687216 307.584 
L 229.687216 301.825648 
L 228.671877 301.825648 
z
" style="fill:#9932cc;"/>
   </g>
   <g id="patch_126">
    <path clip-path="url(#pe55c0e5bdd)" d="M 229.941051 307.584 
L 230.956389 307.584 
L 230.956389 305.504513 
L 229.941051 305.504513 
z
" style="fill:#9932cc;"/>
   </g>
   <g id="patch_127">
    <path clip-path="url(#pe55c0e5bdd)" d="M 231.210224 307.584 
L 232.225563 307.584 
L 232.225563 305.534104 
L 231.210224 305.534104 
z
" style="fill:#9932cc;"/>
   </g>
   <g id="patch_128">
    <path clip-path="url(#pe55c0e5bdd)" d="M 232.479397 307.584 
L 233.494736 307.584 
L 233.494736 306.210991 
L 232.479397 306.210991 
z
" style="fill:#9932cc;"/>
   </g>
   <g id="patch_129">
    <path clip-path="url(#pe55c0e5bdd)" d="M 233.748571 307.584 
L 234.763909 307.584 
L 234.763909 306.695539 
L 233.748571 306.695539 
z
" style="fill:#9932cc;"/>
   </g>
   <g id="patch_130">
    <path clip-path="url(#pe55c0e5bdd)" d="M 235.017744 307.584 
L 236.033083 307.584 
L 236.033083 306.853109 
L 235.017744 306.853109 
z
" style="fill:#9932cc;"/>
   </g>
   <g id="patch_131">
    <path clip-path="url(#pe55c0e5bdd)" d="M 236.286917 307.584 
L 237.302256 307.584 
L 237.302256 305.746417 
L 236.286917 305.746417 
z
" style="fill:#9932cc;"/>
   </g>
   <g id="patch_132">
    <path clip-path="url(#pe55c0e5bdd)" d="M 237.556091 307.584 
L 238.571429 307.584 
L 238.571429 306.748802 
L 237.556091 306.748802 
z
" style="fill:#9932cc;"/>
   </g>
   <g id="patch_133">
    <path clip-path="url(#pe55c0e5bdd)" d="M 238.825264 307.584 
L 239.840603 307.584 
L 239.840603 306.94632 
L 238.825264 306.94632 
z
" style="fill:#9932cc;"/>
   </g>
   <g id="patch_134">
    <path clip-path="url(#pe55c0e5bdd)" d="M 240.094437 307.584 
L 241.109776 307.584 
L 241.109776 306.6911 
L 240.094437 306.6911 
z
" style="fill:#9932cc;"/>
   </g>
   <g id="patch_135">
    <path clip-path="url(#pe55c0e5bdd)" d="M 241.363611 307.584 
L 242.378949 307.584 
L 242.378949 306.830177 
L 241.363611 306.830177 
z
" style="fill:#9932cc;"/>
   </g>
   <g id="patch_136">
    <path clip-path="url(#pe55c0e5bdd)" d="M 242.632784 307.584 
L 243.648123 307.584 
L 243.648123 306.833875 
L 242.632784 306.833875 
z
" style="fill:#9932cc;"/>
   </g>
   <g id="patch_137">
    <path clip-path="url(#pe55c0e5bdd)" d="M 243.901957 307.584 
L 244.917296 307.584 
L 244.917296 306.638577 
L 243.901957 306.638577 
z
" style="fill:#9932cc;"/>
   </g>
   <g id="patch_138">
    <path clip-path="url(#pe55c0e5bdd)" d="M 245.171131 307.584 
L 246.18647 307.584 
L 246.18647 306.981089 
L 245.171131 306.981089 
z
" style="fill:#9932cc;"/>
   </g>
   <g id="patch_139">
    <path clip-path="url(#pe55c0e5bdd)" d="M 246.440304 307.584 
L 247.455643 307.584 
L 247.455643 306.81908 
L 246.440304 306.81908 
z
" style="fill:#9932cc;"/>
   </g>
   <g id="patch_140">
    <path clip-path="url(#pe55c0e5bdd)" d="M 247.709478 307.584 
L 248.724816 307.584 
L 248.724816 306.344889 
L 247.709478 306.344889 
z
" style="fill:#9932cc;"/>
   </g>
   <g id="patch_141">
    <path clip-path="url(#pe55c0e5bdd)" d="M 248.978651 307.584 
L 249.99399 307.584 
L 249.99399 307.119426 
L 248.978651 307.119426 
z
" style="fill:#9932cc;"/>
   </g>
   <g id="patch_142">
    <path clip-path="url(#pe55c0e5bdd)" d="M 250.247824 307.584 
L 251.263163 307.584 
L 251.263163 306.08671 
L 250.247824 306.08671 
z
" style="fill:#9932cc;"/>
   </g>
   <g id="patch_143">
    <path clip-path="url(#pe55c0e5bdd)" d="M 251.516998 307.584 
L 252.532336 307.584 
L 252.532336 306.848671 
L 251.516998 306.848671 
z
" style="fill:#9932cc;"/>
   </g>
   <g id="patch_144">
    <path clip-path="url(#pe55c0e5bdd)" d="M 252.786171 307.584 
L 253.80151 307.584 
L 253.80151 306.390755 
L 252.786171 306.390755 
z
" style="fill:#9932cc;"/>
   </g>
   <g id="patch_145">
    <path clip-path="url(#pe55c0e5bdd)" d="M 254.055344 307.584 
L 255.070683 307.584 
L 255.070683 307.140139 
L 254.055344 307.140139 
z
" style="fill:#9932cc;"/>
   </g>
   <g id="patch_146">
    <path clip-path="url(#pe55c0e5bdd)" d="M 255.324518 307.584 
L 256.339856 307.584 
L 256.339856 306.833136 
L 255.324518 306.833136 
z
" style="fill:#9932cc;"/>
   </g>
   <g id="patch_147">
    <path clip-path="url(#pe55c0e5bdd)" d="M 256.593691 307.584 
L 257.60903 307.584 
L 257.60903 306.571258 
L 256.593691 306.571258 
z
" style="fill:#9932cc;"/>
   </g>
   <g id="patch_148">
    <path clip-path="url(#pe55c0e5bdd)" d="M 257.862864 307.584 
L 258.878203 307.584 
L 258.878203 307.148277 
L 257.862864 307.148277 
z
" style="fill:#9932cc;"/>
   </g>
   <g id="patch_149">
    <path clip-path="url(#pe55c0e5bdd)" d="M 259.132038 307.584 
L 260.147377 307.584 
L 260.147377 307.160853 
L 259.132038 307.160853 
z
" style="fill:#9932cc;"/>
   </g>
   <g id="patch_150">
    <path clip-path="url(#pe55c0e5bdd)" d="M 260.401211 307.584 
L 261.41655 307.584 
L 261.41655 307.035092 
L 260.401211 307.035092 
z
" style="fill:#9932cc;"/>
   </g>
   <g id="patch_151">
    <path clip-path="url(#pe55c0e5bdd)" d="M 261.670385 307.584 
L 262.685723 307.584 
L 262.685723 307.147537 
L 261.670385 307.147537 
z
" style="fill:#9932cc;"/>
   </g>
   <g id="patch_152">
    <path clip-path="url(#pe55c0e5bdd)" d="M 262.939558 307.584 
L 263.954897 307.584 
L 263.954897 307.163812 
L 262.939558 307.163812 
z
" style="fill:#9932cc;"/>
   </g>
   <g id="patch_153">
    <path clip-path="url(#pe55c0e5bdd)" d="M 264.208731 307.584 
L 265.22407 307.584 
L 265.22407 305.897329 
L 264.208731 305.897329 
z
" style="fill:#9932cc;"/>
   </g>
   <g id="patch_154">
    <path clip-path="url(#pe55c0e5bdd)" d="M 265.477905 307.584 
L 266.493243 307.584 
L 266.493243 307.164552 
L 265.477905 307.164552 
z
" style="fill:#9932cc;"/>
   </g>
   <g id="patch_155">
    <path clip-path="url(#pe55c0e5bdd)" d="M 266.747078 307.584 
L 267.762417 307.584 
L 267.762417 306.428483 
L 266.747078 306.428483 
z
" style="fill:#9932cc;"/>
   </g>
   <g id="patch_156">
    <path clip-path="url(#pe55c0e5bdd)" d="M 268.016251 307.584 
L 269.03159 307.584 
L 269.03159 307.158634 
L 268.016251 307.158634 
z
" style="fill:#9932cc;"/>
   </g>
   <g id="patch_157">
    <path clip-path="url(#pe55c0e5bdd)" d="M 269.285425 307.584 
L 270.300763 307.584 
L 270.300763 307.214856 
L 269.285425 307.214856 
z
" style="fill:#9932cc;"/>
   </g>
   <g id="patch_158">
    <path clip-path="url(#pe55c0e5bdd)" d="M 270.554598 307.584 
L 271.569937 307.584 
L 271.569937 306.984048 
L 270.554598 306.984048 
z
" style="fill:#9932cc;"/>
   </g>
   <g id="patch_159">
    <path clip-path="url(#pe55c0e5bdd)" d="M 271.823771 307.584 
L 272.83911 307.584 
L 272.83911 306.879741 
L 271.823771 306.879741 
z
" style="fill:#9932cc;"/>
   </g>
   <g id="patch_160">
    <path clip-path="url(#pe55c0e5bdd)" d="M 273.092945 307.584 
L 274.108283 307.584 
L 274.108283 306.884919 
L 273.092945 306.884919 
z
" style="fill:#9932cc;"/>
   </g>
   <g id="patch_161">
    <path clip-path="url(#pe55c0e5bdd)" d="M 274.362118 307.584 
L 275.377457 307.584 
L 275.377457 307.144578 
L 274.362118 307.144578 
z
" style="fill:#9932cc;"/>
   </g>
   <g id="patch_162">
    <path clip-path="url(#pe55c0e5bdd)" d="M 275.631291 307.584 
L 276.64663 307.584 
L 276.64663 306.858288 
L 275.631291 306.858288 
z
" style="fill:#9932cc;"/>
   </g>
   <g id="patch_163">
    <path clip-path="url(#pe55c0e5bdd)" d="M 276.900465 307.584 
L 277.915804 307.584 
L 277.915804 305.939496 
L 276.900465 305.939496 
z
" style="fill:#9932cc;"/>
   </g>
   <g id="patch_164">
    <path clip-path="url(#pe55c0e5bdd)" d="M 278.169638 307.584 
L 279.184977 307.584 
L 279.184977 306.924127 
L 278.169638 306.924127 
z
" style="fill:#9932cc;"/>
   </g>
   <g id="patch_165">
    <path clip-path="url(#pe55c0e5bdd)" d="M 279.438812 307.584 
L 280.45415 307.584 
L 280.45415 307.029174 
L 279.438812 307.029174 
z
" style="fill:#9932cc;"/>
   </g>
   <g id="patch_166">
    <path clip-path="url(#pe55c0e5bdd)" d="M 280.707985 307.584 
L 281.723324 307.584 
L 281.723324 307.129043 
L 280.707985 307.129043 
z
" style="fill:#9932cc;"/>
   </g>
   <g id="patch_167">
    <path clip-path="url(#pe55c0e5bdd)" d="M 281.977158 307.584 
L 282.992497 307.584 
L 282.992497 306.940402 
L 281.977158 306.940402 
z
" style="fill:#9932cc;"/>
   </g>
   <g id="patch_168">
    <path clip-path="url(#pe55c0e5bdd)" d="M 283.246332 307.584 
L 284.26167 307.584 
L 284.26167 307.140139 
L 283.246332 307.140139 
z
" style="fill:#9932cc;"/>
   </g>
   <g id="patch_169">
    <path clip-path="url(#pe55c0e5bdd)" d="M 284.515505 307.584 
L 285.530844 307.584 
L 285.530844 307.245926 
L 284.515505 307.245926 
z
" style="fill:#9932cc;"/>
   </g>
   <g id="patch_170">
    <path clip-path="url(#pe55c0e5bdd)" d="M 285.784678 307.584 
L 286.800017 307.584 
L 286.800017 307.159373 
L 285.784678 307.159373 
z
" style="fill:#9932cc;"/>
   </g>
   <g id="patch_171">
    <path clip-path="url(#pe55c0e5bdd)" d="M 287.053852 307.584 
L 288.06919 307.584 
L 288.06919 306.810943 
L 287.053852 306.810943 
z
" style="fill:#9932cc;"/>
   </g>
   <g id="patch_172">
    <path clip-path="url(#pe55c0e5bdd)" d="M 288.323025 307.584 
L 289.338364 307.584 
L 289.338364 307.10611 
L 288.323025 307.10611 
z
" style="fill:#9932cc;"/>
   </g>
   <g id="patch_173">
    <path clip-path="url(#pe55c0e5bdd)" d="M 289.592198 307.584 
L 290.607537 307.584 
L 290.607537 306.841273 
L 289.592198 306.841273 
z
" style="fill:#9932cc;"/>
   </g>
   <g id="patch_174">
    <path clip-path="url(#pe55c0e5bdd)" d="M 290.861372 307.584 
L 291.87671 307.584 
L 291.87671 306.330094 
L 290.861372 306.330094 
z
" style="fill:#9932cc;"/>
   </g>
   <g id="patch_175">
    <path clip-path="url(#pe55c0e5bdd)" d="M 292.130545 307.584 
L 293.145884 307.584 
L 293.145884 307.098712 
L 292.130545 307.098712 
z
" style="fill:#9932cc;"/>
   </g>
   <g id="patch_176">
    <path clip-path="url(#pe55c0e5bdd)" d="M 293.399719 307.584 
L 294.415057 307.584 
L 294.415057 307.077259 
L 293.399719 307.077259 
z
" style="fill:#9932cc;"/>
   </g>
   <g id="patch_177">
    <path clip-path="url(#pe55c0e5bdd)" d="M 294.668892 307.584 
L 295.684231 307.584 
L 295.684231 307.177867 
L 294.668892 307.177867 
z
" style="fill:#9932cc;"/>
   </g>
   <g id="patch_178">
    <path clip-path="url(#pe55c0e5bdd)" d="M 295.938065 307.584 
L 296.953404 307.584 
L 296.953404 307.13718 
L 295.938065 307.13718 
z
" style="fill:#9932cc;"/>
   </g>
   <g id="patch_179">
    <path clip-path="url(#pe55c0e5bdd)" d="M 297.207239 307.584 
L 298.222577 307.584 
L 298.222577 306.874563 
L 297.207239 306.874563 
z
" style="fill:#9932cc;"/>
   </g>
   <g id="patch_180">
    <path clip-path="url(#pe55c0e5bdd)" d="M 298.476412 307.584 
L 299.491751 307.584 
L 299.491751 307.024736 
L 298.476412 307.024736 
z
" style="fill:#9932cc;"/>
   </g>
   <g id="patch_181">
    <path clip-path="url(#pe55c0e5bdd)" d="M 299.745585 307.584 
L 300.760924 307.584 
L 300.760924 307.206718 
L 299.745585 307.206718 
z
" style="fill:#9932cc;"/>
   </g>
   <g id="patch_182">
    <path clip-path="url(#pe55c0e5bdd)" d="M 301.014759 307.584 
L 302.030097 307.584 
L 302.030097 306.895276 
L 301.014759 306.895276 
z
" style="fill:#9932cc;"/>
   </g>
   <g id="patch_183">
    <path clip-path="url(#pe55c0e5bdd)" d="M 302.283932 307.584 
L 303.299271 307.584 
L 303.299271 307.183786 
L 302.283932 307.183786 
z
" style="fill:#9932cc;"/>
   </g>
   <g id="patch_184">
    <path clip-path="url(#pe55c0e5bdd)" d="M 303.553105 307.584 
L 304.568444 307.584 
L 304.568444 307.01216 
L 303.553105 307.01216 
z
" style="fill:#9932cc;"/>
   </g>
   <g id="patch_185">
    <path clip-path="url(#pe55c0e5bdd)" d="M 304.822279 307.584 
L 305.837617 307.584 
L 305.837617 307.094274 
L 304.822279 307.094274 
z
" style="fill:#9932cc;"/>
   </g>
   <g id="patch_186">
    <path clip-path="url(#pe55c0e5bdd)" d="M 306.091452 307.584 
L 307.106791 307.584 
L 307.106791 307.186745 
L 306.091452 307.186745 
z
" style="fill:#9932cc;"/>
   </g>
   <g id="patch_187">
    <path clip-path="url(#pe55c0e5bdd)" d="M 307.360625 307.584 
L 308.375964 307.584 
L 308.375964 306.891577 
L 307.360625 306.891577 
z
" style="fill:#9932cc;"/>
   </g>
   <g id="patch_188">
    <path clip-path="url(#pe55c0e5bdd)" d="M 308.629799 307.584 
L 309.645138 307.584 
L 309.645138 307.122385 
L 308.629799 307.122385 
z
" style="fill:#9932cc;"/>
   </g>
   <g id="patch_189">
    <path clip-path="url(#pe55c0e5bdd)" d="M 309.898972 307.584 
L 310.914311 307.584 
L 310.914311 307.054326 
L 309.898972 307.054326 
z
" style="fill:#9932cc;"/>
   </g>
   <g id="patch_190">
    <path clip-path="url(#pe55c0e5bdd)" d="M 311.168146 307.584 
L 312.183484 307.584 
L 312.183484 307.006981 
L 311.168146 307.006981 
z
" style="fill:#9932cc;"/>
   </g>
   <g id="patch_191">
    <path clip-path="url(#pe55c0e5bdd)" d="M 312.437319 307.584 
L 313.452658 307.584 
L 313.452658 307.146057 
L 312.437319 307.146057 
z
" style="fill:#9932cc;"/>
   </g>
   <g id="patch_192">
    <path clip-path="url(#pe55c0e5bdd)" d="M 313.706492 307.584 
L 314.721831 307.584 
L 314.721831 307.189704 
L 313.706492 307.189704 
z
" style="fill:#9932cc;"/>
   </g>
   <g id="patch_193">
    <path clip-path="url(#pe55c0e5bdd)" d="M 314.975666 307.584 
L 315.991004 307.584 
L 315.991004 307.173429 
L 314.975666 307.173429 
z
" style="fill:#9932cc;"/>
   </g>
   <g id="patch_194">
    <path clip-path="url(#pe55c0e5bdd)" d="M 316.244839 307.584 
L 317.260178 307.584 
L 317.260178 306.907112 
L 316.244839 306.907112 
z
" style="fill:#9932cc;"/>
   </g>
   <g id="patch_195">
    <path clip-path="url(#pe55c0e5bdd)" d="M 317.514012 307.584 
L 318.529351 307.584 
L 318.529351 305.925441 
L 317.514012 305.925441 
z
" style="fill:#9932cc;"/>
   </g>
   <g id="patch_196">
    <path clip-path="url(#pe55c0e5bdd)" d="M 318.783186 307.584 
L 319.798524 307.584 
L 319.798524 306.998844 
L 318.783186 306.998844 
z
" style="fill:#9932cc;"/>
   </g>
   <g id="patch_197">
    <path clip-path="url(#pe55c0e5bdd)" d="M 320.052359 307.584 
L 321.067698 307.584 
L 321.067698 306.9478 
L 320.052359 306.9478 
z
" style="fill:#9932cc;"/>
   </g>
   <g id="patch_198">
    <path clip-path="url(#pe55c0e5bdd)" d="M 321.321532 307.584 
L 322.336871 307.584 
L 322.336871 306.867165 
L 321.321532 306.867165 
z
" style="fill:#9932cc;"/>
   </g>
   <g id="patch_199">
    <path clip-path="url(#pe55c0e5bdd)" d="M 322.590706 307.584 
L 323.606044 307.584 
L 323.606044 306.975911 
L 322.590706 306.975911 
z
" style="fill:#9932cc;"/>
   </g>
   <g id="patch_200">
    <path clip-path="url(#pe55c0e5bdd)" d="M 323.859879 307.584 
L 324.875218 307.584 
L 324.875218 307.194142 
L 323.859879 307.194142 
z
" style="fill:#9932cc;"/>
   </g>
   <g id="patch_201">
    <path clip-path="url(#pe55c0e5bdd)" d="M 325.129053 307.584 
L 326.144391 307.584 
L 326.144391 307.079478 
L 325.129053 307.079478 
z
" style="fill:#9932cc;"/>
   </g>
   <g id="patch_202">
    <path clip-path="url(#pe55c0e5bdd)" d="M 326.398226 307.584 
L 327.413565 307.584 
L 327.413565 306.59567 
L 326.398226 306.59567 
z
" style="fill:#9932cc;"/>
   </g>
   <g id="patch_203">
    <path clip-path="url(#pe55c0e5bdd)" d="M 327.667399 307.584 
L 328.682738 307.584 
L 328.682738 306.765077 
L 327.667399 306.765077 
z
" style="fill:#9932cc;"/>
   </g>
   <g id="patch_204">
    <path clip-path="url(#pe55c0e5bdd)" d="M 328.936573 307.584 
L 329.951911 307.584 
L 329.951911 306.85237 
L 328.936573 306.85237 
z
" style="fill:#9932cc;"/>
   </g>
   <g id="patch_205">
    <path clip-path="url(#pe55c0e5bdd)" d="M 330.205746 307.584 
L 331.221085 307.584 
L 331.221085 307.122385 
L 330.205746 307.122385 
z
" style="fill:#9932cc;"/>
   </g>
   <g id="patch_206">
    <path clip-path="url(#pe55c0e5bdd)" d="M 331.474919 307.584 
L 332.490258 307.584 
L 332.490258 306.932265 
L 331.474919 306.932265 
z
" style="fill:#9932cc;"/>
   </g>
   <g id="patch_207">
    <path clip-path="url(#pe55c0e5bdd)" d="M 332.744093 307.584 
L 333.759431 307.584 
L 333.759431 306.291626 
L 332.744093 306.291626 
z
" style="fill:#9932cc;"/>
   </g>
   <g id="patch_208">
    <path clip-path="url(#pe55c0e5bdd)" d="M 334.013266 307.584 
L 335.028605 307.584 
L 335.028605 306.904153 
L 334.013266 306.904153 
z
" style="fill:#9932cc;"/>
   </g>
   <g id="patch_209">
    <path clip-path="url(#pe55c0e5bdd)" d="M 335.282439 307.584 
L 336.297778 307.584 
L 336.297778 306.505419 
L 335.282439 306.505419 
z
" style="fill:#9932cc;"/>
   </g>
   <g id="patch_210">
    <path clip-path="url(#pe55c0e5bdd)" d="M 336.551613 307.584 
L 337.566951 307.584 
L 337.566951 306.78875 
L 336.551613 306.78875 
z
" style="fill:#9932cc;"/>
   </g>
   <g id="patch_211">
    <path clip-path="url(#pe55c0e5bdd)" d="M 337.820786 307.584 
L 338.836125 307.584 
L 338.836125 305.658384 
L 337.820786 305.658384 
z
" style="fill:#9932cc;"/>
   </g>
   <g id="patch_212">
    <path clip-path="url(#pe55c0e5bdd)" d="M 339.089959 307.584 
L 340.105298 307.584 
L 340.105298 306.813162 
L 339.089959 306.813162 
z
" style="fill:#9932cc;"/>
   </g>
   <g id="patch_213">
    <path clip-path="url(#pe55c0e5bdd)" d="M 340.359133 307.584 
L 341.374472 307.584 
L 341.374472 306.835355 
L 340.359133 306.835355 
z
" style="fill:#9932cc;"/>
   </g>
   <g id="patch_214">
    <path clip-path="url(#pe55c0e5bdd)" d="M 341.628306 307.584 
L 342.643645 307.584 
L 342.643645 306.650413 
L 341.628306 306.650413 
z
" style="fill:#9932cc;"/>
   </g>
   <g id="patch_215">
    <path clip-path="url(#pe55c0e5bdd)" d="M 342.89748 307.584 
L 343.912818 307.584 
L 343.912818 307.194142 
L 342.89748 307.194142 
z
" style="fill:#9932cc;"/>
   </g>
   <g id="patch_216">
    <path clip-path="url(#pe55c0e5bdd)" d="M 344.166653 307.584 
L 345.181992 307.584 
L 345.181992 306.884919 
L 344.166653 306.884919 
z
" style="fill:#9932cc;"/>
   </g>
   <g id="patch_217">
    <path clip-path="url(#pe55c0e5bdd)" d="M 345.435826 307.584 
L 346.451165 307.584 
L 346.451165 307.045449 
L 345.435826 307.045449 
z
" style="fill:#9932cc;"/>
   </g>
   <g id="patch_218">
    <path clip-path="url(#pe55c0e5bdd)" d="M 346.705 307.584 
L 347.720338 307.584 
L 347.720338 307.144578 
L 346.705 307.144578 
z
" style="fill:#9932cc;"/>
   </g>
   <g id="patch_219">
    <path clip-path="url(#pe55c0e5bdd)" d="M 347.974173 307.584 
L 348.989512 307.584 
L 348.989512 307.061724 
L 347.974173 307.061724 
z
" style="fill:#9932cc;"/>
   </g>
   <g id="patch_220">
    <path clip-path="url(#pe55c0e5bdd)" d="M 349.243346 307.584 
L 350.258685 307.584 
L 350.258685 306.997364 
L 349.243346 306.997364 
z
" style="fill:#9932cc;"/>
   </g>
   <g id="patch_221">
    <path clip-path="url(#pe55c0e5bdd)" d="M 350.51252 307.584 
L 351.527858 307.584 
L 351.527858 307.015119 
L 350.51252 307.015119 
z
" style="fill:#9932cc;"/>
   </g>
   <g id="patch_222">
    <path clip-path="url(#pe55c0e5bdd)" d="M 351.781693 307.584 
L 352.797032 307.584 
L 352.797032 307.140879 
L 351.781693 307.140879 
z
" style="fill:#9932cc;"/>
   </g>
   <g id="patch_223">
    <path clip-path="url(#pe55c0e5bdd)" d="M 353.050866 307.584 
L 354.066205 307.584 
L 354.066205 307.172689 
L 353.050866 307.172689 
z
" style="fill:#9932cc;"/>
   </g>
   <g id="patch_224">
    <path clip-path="url(#pe55c0e5bdd)" d="M 354.32004 307.584 
L 355.335378 307.584 
L 355.335378 307.07504 
L 354.32004 307.07504 
z
" style="fill:#9932cc;"/>
   </g>
   <g id="patch_225">
    <path clip-path="url(#pe55c0e5bdd)" d="M 355.589213 307.584 
L 356.604552 307.584 
L 356.604552 307.168251 
L 355.589213 307.168251 
z
" style="fill:#9932cc;"/>
   </g>
   <g id="patch_226">
    <path clip-path="url(#pe55c0e5bdd)" d="M 356.858387 307.584 
L 357.873725 307.584 
L 357.873725 307.060244 
L 356.858387 307.060244 
z
" style="fill:#9932cc;"/>
   </g>
   <g id="patch_227">
    <path clip-path="url(#pe55c0e5bdd)" d="M 358.12756 307.584 
L 359.142899 307.584 
L 359.142899 306.898975 
L 358.12756 306.898975 
z
" style="fill:#9932cc;"/>
   </g>
   <g id="patch_228">
    <path clip-path="url(#pe55c0e5bdd)" d="M 359.396733 307.584 
L 360.412072 307.584 
L 360.412072 306.933004 
L 359.396733 306.933004 
z
" style="fill:#9932cc;"/>
   </g>
   <g id="patch_229">
    <path clip-path="url(#pe55c0e5bdd)" d="M 360.665907 307.584 
L 361.681245 307.584 
L 361.681245 307.119426 
L 360.665907 307.119426 
z
" style="fill:#9932cc;"/>
   </g>
   <g id="patch_230">
    <path clip-path="url(#pe55c0e5bdd)" d="M 361.93508 307.584 
L 362.950419 307.584 
L 362.950419 307.215596 
L 361.93508 307.215596 
z
" style="fill:#9932cc;"/>
   </g>
   <g id="patch_231">
    <path clip-path="url(#pe55c0e5bdd)" d="M 363.204253 307.584 
L 364.219592 307.584 
L 364.219592 307.174908 
L 363.204253 307.174908 
z
" style="fill:#9932cc;"/>
   </g>
   <g id="patch_232">
    <path clip-path="url(#pe55c0e5bdd)" d="M 364.473427 307.584 
L 365.488765 307.584 
L 365.488765 307.061724 
L 364.473427 307.061724 
z
" style="fill:#9932cc;"/>
   </g>
   <g id="patch_233">
    <path clip-path="url(#pe55c0e5bdd)" d="M 365.7426 307.584 
L 366.757939 307.584 
L 366.757939 307.015858 
L 365.7426 307.015858 
z
" style="fill:#9932cc;"/>
   </g>
   <g id="patch_234">
    <path clip-path="url(#pe55c0e5bdd)" d="M 367.011773 307.584 
L 368.027112 307.584 
L 368.027112 307.228172 
L 367.011773 307.228172 
z
" style="fill:#9932cc;"/>
   </g>
   <g id="patch_235">
    <path clip-path="url(#pe55c0e5bdd)" d="M 368.280947 307.584 
L 369.296285 307.584 
L 369.296285 306.634138 
L 368.280947 306.634138 
z
" style="fill:#9932cc;"/>
   </g>
   <g id="patch_236">
    <path clip-path="url(#pe55c0e5bdd)" d="M 369.55012 307.584 
L 370.565459 307.584 
L 370.565459 307.118686 
L 369.55012 307.118686 
z
" style="fill:#9932cc;"/>
   </g>
   <g id="patch_237">
    <path clip-path="url(#pe55c0e5bdd)" d="M 370.819293 307.584 
L 371.834632 307.584 
L 371.834632 307.154195 
L 370.819293 307.154195 
z
" style="fill:#9932cc;"/>
   </g>
   <g id="patch_238">
    <path clip-path="url(#pe55c0e5bdd)" d="M 372.088467 307.584 
L 373.103806 307.584 
L 373.103806 307.061724 
L 372.088467 307.061724 
z
" style="fill:#9932cc;"/>
   </g>
   <g id="patch_239">
    <path clip-path="url(#pe55c0e5bdd)" d="M 373.35764 307.584 
L 374.372979 307.584 
L 374.372979 306.964814 
L 373.35764 306.964814 
z
" style="fill:#9932cc;"/>
   </g>
   <g id="patch_240">
    <path clip-path="url(#pe55c0e5bdd)" d="M 374.626814 307.584 
L 375.642152 307.584 
L 375.642152 307.01216 
L 374.626814 307.01216 
z
" style="fill:#9932cc;"/>
   </g>
   <g id="patch_241">
    <path clip-path="url(#pe55c0e5bdd)" d="M 375.895987 307.584 
L 376.911326 307.584 
L 376.911326 307.026215 
L 375.895987 307.026215 
z
" style="fill:#9932cc;"/>
   </g>
   <g id="patch_242">
    <path clip-path="url(#pe55c0e5bdd)" d="M 377.16516 307.584 
L 378.180499 307.584 
L 378.180499 306.880481 
L 377.16516 306.880481 
z
" style="fill:#9932cc;"/>
   </g>
   <g id="patch_243">
    <path clip-path="url(#pe55c0e5bdd)" d="M 378.434334 307.584 
L 379.449672 307.584 
L 379.449672 306.131836 
L 378.434334 306.131836 
z
" style="fill:#9932cc;"/>
   </g>
   <g id="patch_244">
    <path clip-path="url(#pe55c0e5bdd)" d="M 379.703507 307.584 
L 380.718846 307.584 
L 380.718846 306.926346 
L 379.703507 306.926346 
z
" style="fill:#9932cc;"/>
   </g>
   <g id="patch_245">
    <path clip-path="url(#pe55c0e5bdd)" d="M 380.97268 307.584 
L 381.988019 307.584 
L 381.988019 307.208938 
L 380.97268 307.208938 
z
" style="fill:#9932cc;"/>
   </g>
   <g id="patch_246">
    <path clip-path="url(#pe55c0e5bdd)" d="M 382.241854 307.584 
L 383.257192 307.584 
L 383.257192 307.199321 
L 382.241854 307.199321 
z
" style="fill:#9932cc;"/>
   </g>
   <g id="patch_247">
    <path clip-path="url(#pe55c0e5bdd)" d="M 383.511027 307.584 
L 384.526366 307.584 
L 384.526366 307.060244 
L 383.511027 307.060244 
z
" style="fill:#9932cc;"/>
   </g>
   <g id="patch_248">
    <path clip-path="url(#pe55c0e5bdd)" d="M 384.7802 307.584 
L 385.795539 307.584 
L 385.795539 306.995885 
L 384.7802 306.995885 
z
" style="fill:#9932cc;"/>
   </g>
   <g id="patch_249">
    <path clip-path="url(#pe55c0e5bdd)" d="M 386.049374 307.584 
L 387.064712 307.584 
L 387.064712 307.068382 
L 386.049374 307.068382 
z
" style="fill:#9932cc;"/>
   </g>
   <g id="patch_250">
    <path clip-path="url(#pe55c0e5bdd)" d="M 387.318547 307.584 
L 388.333886 307.584 
L 388.333886 306.984048 
L 387.318547 306.984048 
z
" style="fill:#9932cc;"/>
   </g>
   <g id="patch_251">
    <path clip-path="url(#pe55c0e5bdd)" d="M 388.587721 307.584 
L 389.603059 307.584 
L 389.603059 306.803545 
L 388.587721 306.803545 
z
" style="fill:#9932cc;"/>
   </g>
   <g id="patch_252">
    <path clip-path="url(#pe55c0e5bdd)" d="M 389.856894 307.584 
L 390.872233 307.584 
L 390.872233 307.143098 
L 389.856894 307.143098 
z
" style="fill:#9932cc;"/>
   </g>
   <g id="patch_253">
    <path clip-path="url(#pe55c0e5bdd)" d="M 391.126067 307.584 
L 392.141406 307.584 
L 392.141406 307.022516 
L 391.126067 307.022516 
z
" style="fill:#9932cc;"/>
   </g>
   <g id="patch_254">
    <path clip-path="url(#pe55c0e5bdd)" d="M 392.395241 307.584 
L 393.410579 307.584 
L 393.410579 306.747323 
L 392.395241 306.747323 
z
" style="fill:#9932cc;"/>
   </g>
   <g id="patch_255">
    <path clip-path="url(#pe55c0e5bdd)" d="M 393.664414 307.584 
L 394.679753 307.584 
L 394.679753 307.04101 
L 393.664414 307.04101 
z
" style="fill:#9932cc;"/>
   </g>
   <g id="patch_256">
    <path clip-path="url(#pe55c0e5bdd)" d="M 394.933587 307.584 
L 395.948926 307.584 
L 395.948926 306.97961 
L 394.933587 306.97961 
z
" style="fill:#9932cc;"/>
   </g>
   <g id="patch_257">
    <path clip-path="url(#pe55c0e5bdd)" d="M 396.202761 307.584 
L 397.218099 307.584 
L 397.218099 306.66003 
L 396.202761 306.66003 
z
" style="fill:#9932cc;"/>
   </g>
   <g id="patch_258">
    <path clip-path="url(#pe55c0e5bdd)" d="M 397.471934 307.584 
L 398.487273 307.584 
L 398.487273 295.966687 
L 397.471934 295.966687 
z
" style="fill:#9932cc;"/>
   </g>
   <g id="matplotlib.axis_1">
    <g id="xtick_1">
     <g id="line2d_1">
      <defs>
       <path d="M 0 0 
L 0 3.5 
" id="maf17edfa83" style="stroke:#000000;stroke-width:0.8;"/>
      </defs>
      <g>
       <use style="stroke:#000000;stroke-width:0.8;" x="74.340397" xlink:href="#maf17edfa83" y="307.584"/>
      </g>
     </g>
     <g id="text_1">
      <!-- 0 -->
      <g transform="translate(71.159147 322.182437)scale(0.1 -0.1)">
       <defs>
        <path d="M 2034 4250 
Q 1547 4250 1301 3770 
Q 1056 3291 1056 2328 
Q 1056 1369 1301 889 
Q 1547 409 2034 409 
Q 2525 409 2770 889 
Q 3016 1369 3016 2328 
Q 3016 3291 2770 3770 
Q 2525 4250 2034 4250 
z
M 2034 4750 
Q 2819 4750 3233 4129 
Q 3647 3509 3647 2328 
Q 3647 1150 3233 529 
Q 2819 -91 2034 -91 
Q 1250 -91 836 529 
Q 422 1150 422 2328 
Q 422 3509 836 4129 
Q 1250 4750 2034 4750 
z
" id="DejaVuSans-30" transform="scale(0.015625)"/>
       </defs>
       <use xlink:href="#DejaVuSans-30"/>
      </g>
     </g>
    </g>
    <g id="xtick_2">
     <g id="line2d_2">
      <g>
       <use style="stroke:#000000;stroke-width:0.8;" x="137.799065" xlink:href="#maf17edfa83" y="307.584"/>
      </g>
     </g>
     <g id="text_2">
      <!-- 50 -->
      <g transform="translate(131.436565 322.182437)scale(0.1 -0.1)">
       <defs>
        <path d="M 691 4666 
L 3169 4666 
L 3169 4134 
L 1269 4134 
L 1269 2991 
Q 1406 3038 1543 3061 
Q 1681 3084 1819 3084 
Q 2600 3084 3056 2656 
Q 3513 2228 3513 1497 
Q 3513 744 3044 326 
Q 2575 -91 1722 -91 
Q 1428 -91 1123 -41 
Q 819 9 494 109 
L 494 744 
Q 775 591 1075 516 
Q 1375 441 1709 441 
Q 2250 441 2565 725 
Q 2881 1009 2881 1497 
Q 2881 1984 2565 2268 
Q 2250 2553 1709 2553 
Q 1456 2553 1204 2497 
Q 953 2441 691 2322 
L 691 4666 
z
" id="DejaVuSans-35" transform="scale(0.015625)"/>
       </defs>
       <use xlink:href="#DejaVuSans-35"/>
       <use x="63.623047" xlink:href="#DejaVuSans-30"/>
      </g>
     </g>
    </g>
    <g id="xtick_3">
     <g id="line2d_3">
      <g>
       <use style="stroke:#000000;stroke-width:0.8;" x="201.257733" xlink:href="#maf17edfa83" y="307.584"/>
      </g>
     </g>
     <g id="text_3">
      <!-- 100 -->
      <g transform="translate(191.713983 322.182437)scale(0.1 -0.1)">
       <defs>
        <path d="M 794 531 
L 1825 531 
L 1825 4091 
L 703 3866 
L 703 4441 
L 1819 4666 
L 2450 4666 
L 2450 531 
L 3481 531 
L 3481 0 
L 794 0 
L 794 531 
z
" id="DejaVuSans-31" transform="scale(0.015625)"/>
       </defs>
       <use xlink:href="#DejaVuSans-31"/>
       <use x="63.623047" xlink:href="#DejaVuSans-30"/>
       <use x="127.246094" xlink:href="#DejaVuSans-30"/>
      </g>
     </g>
    </g>
    <g id="xtick_4">
     <g id="line2d_4">
      <g>
       <use style="stroke:#000000;stroke-width:0.8;" x="264.716401" xlink:href="#maf17edfa83" y="307.584"/>
      </g>
     </g>
     <g id="text_4">
      <!-- 150 -->
      <g transform="translate(255.172651 322.182437)scale(0.1 -0.1)">
       <use xlink:href="#DejaVuSans-31"/>
       <use x="63.623047" xlink:href="#DejaVuSans-35"/>
       <use x="127.246094" xlink:href="#DejaVuSans-30"/>
      </g>
     </g>
    </g>
    <g id="xtick_5">
     <g id="line2d_5">
      <g>
       <use style="stroke:#000000;stroke-width:0.8;" x="328.175069" xlink:href="#maf17edfa83" y="307.584"/>
      </g>
     </g>
     <g id="text_5">
      <!-- 200 -->
      <g transform="translate(318.631319 322.182437)scale(0.1 -0.1)">
       <defs>
        <path d="M 1228 531 
L 3431 531 
L 3431 0 
L 469 0 
L 469 531 
Q 828 903 1448 1529 
Q 2069 2156 2228 2338 
Q 2531 2678 2651 2914 
Q 2772 3150 2772 3378 
Q 2772 3750 2511 3984 
Q 2250 4219 1831 4219 
Q 1534 4219 1204 4116 
Q 875 4013 500 3803 
L 500 4441 
Q 881 4594 1212 4672 
Q 1544 4750 1819 4750 
Q 2544 4750 2975 4387 
Q 3406 4025 3406 3419 
Q 3406 3131 3298 2873 
Q 3191 2616 2906 2266 
Q 2828 2175 2409 1742 
Q 1991 1309 1228 531 
z
" id="DejaVuSans-32" transform="scale(0.015625)"/>
       </defs>
       <use xlink:href="#DejaVuSans-32"/>
       <use x="63.623047" xlink:href="#DejaVuSans-30"/>
       <use x="127.246094" xlink:href="#DejaVuSans-30"/>
      </g>
     </g>
    </g>
    <g id="xtick_6">
     <g id="line2d_6">
      <g>
       <use style="stroke:#000000;stroke-width:0.8;" x="391.633737" xlink:href="#maf17edfa83" y="307.584"/>
      </g>
     </g>
     <g id="text_6">
      <!-- 250 -->
      <g transform="translate(382.089987 322.182437)scale(0.1 -0.1)">
       <use xlink:href="#DejaVuSans-32"/>
       <use x="63.623047" xlink:href="#DejaVuSans-35"/>
       <use x="127.246094" xlink:href="#DejaVuSans-30"/>
      </g>
     </g>
    </g>
    <g id="text_7">
     <!-- Byte -->
     <g transform="translate(224.733438 335.860562)scale(0.1 -0.1)">
      <defs>
       <path d="M 1259 2228 
L 1259 519 
L 2272 519 
Q 2781 519 3026 730 
Q 3272 941 3272 1375 
Q 3272 1813 3026 2020 
Q 2781 2228 2272 2228 
L 1259 2228 
z
M 1259 4147 
L 1259 2741 
L 2194 2741 
Q 2656 2741 2882 2914 
Q 3109 3088 3109 3444 
Q 3109 3797 2882 3972 
Q 2656 4147 2194 4147 
L 1259 4147 
z
M 628 4666 
L 2241 4666 
Q 2963 4666 3353 4366 
Q 3744 4066 3744 3513 
Q 3744 3084 3544 2831 
Q 3344 2578 2956 2516 
Q 3422 2416 3680 2098 
Q 3938 1781 3938 1306 
Q 3938 681 3513 340 
Q 3088 0 2303 0 
L 628 0 
L 628 4666 
z
" id="DejaVuSans-42" transform="scale(0.015625)"/>
       <path d="M 2059 -325 
Q 1816 -950 1584 -1140 
Q 1353 -1331 966 -1331 
L 506 -1331 
L 506 -850 
L 844 -850 
Q 1081 -850 1212 -737 
Q 1344 -625 1503 -206 
L 1606 56 
L 191 3500 
L 800 3500 
L 1894 763 
L 2988 3500 
L 3597 3500 
L 2059 -325 
z
" id="DejaVuSans-79" transform="scale(0.015625)"/>
       <path d="M 1172 4494 
L 1172 3500 
L 2356 3500 
L 2356 3053 
L 1172 3053 
L 1172 1153 
Q 1172 725 1289 603 
Q 1406 481 1766 481 
L 2356 481 
L 2356 0 
L 1766 0 
Q 1100 0 847 248 
Q 594 497 594 1153 
L 594 3053 
L 172 3053 
L 172 3500 
L 594 3500 
L 594 4494 
L 1172 4494 
z
" id="DejaVuSans-74" transform="scale(0.015625)"/>
       <path d="M 3597 1894 
L 3597 1613 
L 953 1613 
Q 991 1019 1311 708 
Q 1631 397 2203 397 
Q 2534 397 2845 478 
Q 3156 559 3463 722 
L 3463 178 
Q 3153 47 2828 -22 
Q 2503 -91 2169 -91 
Q 1331 -91 842 396 
Q 353 884 353 1716 
Q 353 2575 817 3079 
Q 1281 3584 2069 3584 
Q 2775 3584 3186 3129 
Q 3597 2675 3597 1894 
z
M 3022 2063 
Q 3016 2534 2758 2815 
Q 2500 3097 2075 3097 
Q 1594 3097 1305 2825 
Q 1016 2553 972 2059 
L 3022 2063 
z
" id="DejaVuSans-65" transform="scale(0.015625)"/>
      </defs>
      <use xlink:href="#DejaVuSans-42"/>
      <use x="68.603516" xlink:href="#DejaVuSans-79"/>
      <use x="127.783203" xlink:href="#DejaVuSans-74"/>
      <use x="166.992188" xlink:href="#DejaVuSans-65"/>
     </g>
    </g>
   </g>
   <g id="matplotlib.axis_2">
    <g id="ytick_1">
     <g id="line2d_7">
      <defs>
       <path d="M 0 0 
L -3.5 0 
" id="m68829a804d" style="stroke:#000000;stroke-width:0.8;"/>
      </defs>
      <g>
       <use style="stroke:#000000;stroke-width:0.8;" x="57.6" xlink:href="#m68829a804d" y="307.584"/>
      </g>
     </g>
     <g id="text_8">
      <!-- 0.00 -->
      <g transform="translate(28.334375 311.383219)scale(0.1 -0.1)">
       <defs>
        <path d="M 684 794 
L 1344 794 
L 1344 0 
L 684 0 
L 684 794 
z
" id="DejaVuSans-2e" transform="scale(0.015625)"/>
       </defs>
       <use xlink:href="#DejaVuSans-30"/>
       <use x="63.623047" xlink:href="#DejaVuSans-2e"/>
       <use x="95.410156" xlink:href="#DejaVuSans-30"/>
       <use x="159.033203" xlink:href="#DejaVuSans-30"/>
      </g>
     </g>
    </g>
    <g id="ytick_2">
     <g id="line2d_8">
      <g>
       <use style="stroke:#000000;stroke-width:0.8;" x="57.6" xlink:href="#m68829a804d" y="268.433921"/>
      </g>
     </g>
     <g id="text_9">
      <!-- 0.01 -->
      <g transform="translate(28.334375 272.23314)scale(0.1 -0.1)">
       <use xlink:href="#DejaVuSans-30"/>
       <use x="63.623047" xlink:href="#DejaVuSans-2e"/>
       <use x="95.410156" xlink:href="#DejaVuSans-30"/>
       <use x="159.033203" xlink:href="#DejaVuSans-31"/>
      </g>
     </g>
    </g>
    <g id="ytick_3">
     <g id="line2d_9">
      <g>
       <use style="stroke:#000000;stroke-width:0.8;" x="57.6" xlink:href="#m68829a804d" y="229.283842"/>
      </g>
     </g>
     <g id="text_10">
      <!-- 0.02 -->
      <g transform="translate(28.334375 233.083061)scale(0.1 -0.1)">
       <use xlink:href="#DejaVuSans-30"/>
       <use x="63.623047" xlink:href="#DejaVuSans-2e"/>
       <use x="95.410156" xlink:href="#DejaVuSans-30"/>
       <use x="159.033203" xlink:href="#DejaVuSans-32"/>
      </g>
     </g>
    </g>
    <g id="ytick_4">
     <g id="line2d_10">
      <g>
       <use style="stroke:#000000;stroke-width:0.8;" x="57.6" xlink:href="#m68829a804d" y="190.133764"/>
      </g>
     </g>
     <g id="text_11">
      <!-- 0.03 -->
      <g transform="translate(28.334375 193.932982)scale(0.1 -0.1)">
       <defs>
        <path d="M 2597 2516 
Q 3050 2419 3304 2112 
Q 3559 1806 3559 1356 
Q 3559 666 3084 287 
Q 2609 -91 1734 -91 
Q 1441 -91 1130 -33 
Q 819 25 488 141 
L 488 750 
Q 750 597 1062 519 
Q 1375 441 1716 441 
Q 2309 441 2620 675 
Q 2931 909 2931 1356 
Q 2931 1769 2642 2001 
Q 2353 2234 1838 2234 
L 1294 2234 
L 1294 2753 
L 1863 2753 
Q 2328 2753 2575 2939 
Q 2822 3125 2822 3475 
Q 2822 3834 2567 4026 
Q 2313 4219 1838 4219 
Q 1578 4219 1281 4162 
Q 984 4106 628 3988 
L 628 4550 
Q 988 4650 1302 4700 
Q 1616 4750 1894 4750 
Q 2613 4750 3031 4423 
Q 3450 4097 3450 3541 
Q 3450 3153 3228 2886 
Q 3006 2619 2597 2516 
z
" id="DejaVuSans-33" transform="scale(0.015625)"/>
       </defs>
       <use xlink:href="#DejaVuSans-30"/>
       <use x="63.623047" xlink:href="#DejaVuSans-2e"/>
       <use x="95.410156" xlink:href="#DejaVuSans-30"/>
       <use x="159.033203" xlink:href="#DejaVuSans-33"/>
      </g>
     </g>
    </g>
    <g id="ytick_5">
     <g id="line2d_11">
      <g>
       <use style="stroke:#000000;stroke-width:0.8;" x="57.6" xlink:href="#m68829a804d" y="150.983685"/>
      </g>
     </g>
     <g id="text_12">
      <!-- 0.04 -->
      <g transform="translate(28.334375 154.782904)scale(0.1 -0.1)">
       <defs>
        <path d="M 2419 4116 
L 825 1625 
L 2419 1625 
L 2419 4116 
z
M 2253 4666 
L 3047 4666 
L 3047 1625 
L 3713 1625 
L 3713 1100 
L 3047 1100 
L 3047 0 
L 2419 0 
L 2419 1100 
L 313 1100 
L 313 1709 
L 2253 4666 
z
" id="DejaVuSans-34" transform="scale(0.015625)"/>
       </defs>
       <use xlink:href="#DejaVuSans-30"/>
       <use x="63.623047" xlink:href="#DejaVuSans-2e"/>
       <use x="95.410156" xlink:href="#DejaVuSans-30"/>
       <use x="159.033203" xlink:href="#DejaVuSans-34"/>
      </g>
     </g>
    </g>
    <g id="ytick_6">
     <g id="line2d_12">
      <g>
       <use style="stroke:#000000;stroke-width:0.8;" x="57.6" xlink:href="#m68829a804d" y="111.833606"/>
      </g>
     </g>
     <g id="text_13">
      <!-- 0.05 -->
      <g transform="translate(28.334375 115.632825)scale(0.1 -0.1)">
       <use xlink:href="#DejaVuSans-30"/>
       <use x="63.623047" xlink:href="#DejaVuSans-2e"/>
       <use x="95.410156" xlink:href="#DejaVuSans-30"/>
       <use x="159.033203" xlink:href="#DejaVuSans-35"/>
      </g>
     </g>
    </g>
    <g id="ytick_7">
     <g id="line2d_13">
      <g>
       <use style="stroke:#000000;stroke-width:0.8;" x="57.6" xlink:href="#m68829a804d" y="72.683527"/>
      </g>
     </g>
     <g id="text_14">
      <!-- 0.06 -->
      <g transform="translate(28.334375 76.482746)scale(0.1 -0.1)">
       <defs>
        <path d="M 2113 2584 
Q 1688 2584 1439 2293 
Q 1191 2003 1191 1497 
Q 1191 994 1439 701 
Q 1688 409 2113 409 
Q 2538 409 2786 701 
Q 3034 994 3034 1497 
Q 3034 2003 2786 2293 
Q 2538 2584 2113 2584 
z
M 3366 4563 
L 3366 3988 
Q 3128 4100 2886 4159 
Q 2644 4219 2406 4219 
Q 1781 4219 1451 3797 
Q 1122 3375 1075 2522 
Q 1259 2794 1537 2939 
Q 1816 3084 2150 3084 
Q 2853 3084 3261 2657 
Q 3669 2231 3669 1497 
Q 3669 778 3244 343 
Q 2819 -91 2113 -91 
Q 1303 -91 875 529 
Q 447 1150 447 2328 
Q 447 3434 972 4092 
Q 1497 4750 2381 4750 
Q 2619 4750 2861 4703 
Q 3103 4656 3366 4563 
z
" id="DejaVuSans-36" transform="scale(0.015625)"/>
       </defs>
       <use xlink:href="#DejaVuSans-30"/>
       <use x="63.623047" xlink:href="#DejaVuSans-2e"/>
       <use x="95.410156" xlink:href="#DejaVuSans-30"/>
       <use x="159.033203" xlink:href="#DejaVuSans-36"/>
      </g>
     </g>
    </g>
    <g id="text_15">
     <!-- Byte frequency -->
     <g transform="translate(22.254687 212.620187)rotate(-90)scale(0.1 -0.1)">
      <defs>
       <path id="DejaVuSans-20" transform="scale(0.015625)"/>
       <path d="M 2375 4863 
L 2375 4384 
L 1825 4384 
Q 1516 4384 1395 4259 
Q 1275 4134 1275 3809 
L 1275 3500 
L 2222 3500 
L 2222 3053 
L 1275 3053 
L 1275 0 
L 697 0 
L 697 3053 
L 147 3053 
L 147 3500 
L 697 3500 
L 697 3744 
Q 697 4328 969 4595 
Q 1241 4863 1831 4863 
L 2375 4863 
z
" id="DejaVuSans-66" transform="scale(0.015625)"/>
       <path d="M 2631 2963 
Q 2534 3019 2420 3045 
Q 2306 3072 2169 3072 
Q 1681 3072 1420 2755 
Q 1159 2438 1159 1844 
L 1159 0 
L 581 0 
L 581 3500 
L 1159 3500 
L 1159 2956 
Q 1341 3275 1631 3429 
Q 1922 3584 2338 3584 
Q 2397 3584 2469 3576 
Q 2541 3569 2628 3553 
L 2631 2963 
z
" id="DejaVuSans-72" transform="scale(0.015625)"/>
       <path d="M 947 1747 
Q 947 1113 1208 752 
Q 1469 391 1925 391 
Q 2381 391 2643 752 
Q 2906 1113 2906 1747 
Q 2906 2381 2643 2742 
Q 2381 3103 1925 3103 
Q 1469 3103 1208 2742 
Q 947 2381 947 1747 
z
M 2906 525 
Q 2725 213 2448 61 
Q 2172 -91 1784 -91 
Q 1150 -91 751 415 
Q 353 922 353 1747 
Q 353 2572 751 3078 
Q 1150 3584 1784 3584 
Q 2172 3584 2448 3432 
Q 2725 3281 2906 2969 
L 2906 3500 
L 3481 3500 
L 3481 -1331 
L 2906 -1331 
L 2906 525 
z
" id="DejaVuSans-71" transform="scale(0.015625)"/>
       <path d="M 544 1381 
L 544 3500 
L 1119 3500 
L 1119 1403 
Q 1119 906 1312 657 
Q 1506 409 1894 409 
Q 2359 409 2629 706 
Q 2900 1003 2900 1516 
L 2900 3500 
L 3475 3500 
L 3475 0 
L 2900 0 
L 2900 538 
Q 2691 219 2414 64 
Q 2138 -91 1772 -91 
Q 1169 -91 856 284 
Q 544 659 544 1381 
z
M 1991 3584 
L 1991 3584 
z
" id="DejaVuSans-75" transform="scale(0.015625)"/>
       <path d="M 3513 2113 
L 3513 0 
L 2938 0 
L 2938 2094 
Q 2938 2591 2744 2837 
Q 2550 3084 2163 3084 
Q 1697 3084 1428 2787 
Q 1159 2491 1159 1978 
L 1159 0 
L 581 0 
L 581 3500 
L 1159 3500 
L 1159 2956 
Q 1366 3272 1645 3428 
Q 1925 3584 2291 3584 
Q 2894 3584 3203 3211 
Q 3513 2838 3513 2113 
z
" id="DejaVuSans-6e" transform="scale(0.015625)"/>
       <path d="M 3122 3366 
L 3122 2828 
Q 2878 2963 2633 3030 
Q 2388 3097 2138 3097 
Q 1578 3097 1268 2742 
Q 959 2388 959 1747 
Q 959 1106 1268 751 
Q 1578 397 2138 397 
Q 2388 397 2633 464 
Q 2878 531 3122 666 
L 3122 134 
Q 2881 22 2623 -34 
Q 2366 -91 2075 -91 
Q 1284 -91 818 406 
Q 353 903 353 1747 
Q 353 2603 823 3093 
Q 1294 3584 2113 3584 
Q 2378 3584 2631 3529 
Q 2884 3475 3122 3366 
z
" id="DejaVuSans-63" transform="scale(0.015625)"/>
      </defs>
      <use xlink:href="#DejaVuSans-42"/>
      <use x="68.603516" xlink:href="#DejaVuSans-79"/>
      <use x="127.783203" xlink:href="#DejaVuSans-74"/>
      <use x="166.992188" xlink:href="#DejaVuSans-65"/>
      <use x="228.515625" xlink:href="#DejaVuSans-20"/>
      <use x="260.302734" xlink:href="#DejaVuSans-66"/>
      <use x="295.507812" xlink:href="#DejaVuSans-72"/>
      <use x="334.371094" xlink:href="#DejaVuSans-65"/>
      <use x="395.894531" xlink:href="#DejaVuSans-71"/>
      <use x="459.371094" xlink:href="#DejaVuSans-75"/>
      <use x="522.75" xlink:href="#DejaVuSans-65"/>
      <use x="584.273438" xlink:href="#DejaVuSans-6e"/>
      <use x="647.652344" xlink:href="#DejaVuSans-63"/>
      <use x="702.632812" xlink:href="#DejaVuSans-79"/>
     </g>
    </g>
   </g>
   <g id="patch_259">
    <path d="M 57.6 307.584 
L 57.6 41.472 
" style="fill:none;stroke:#000000;stroke-linecap:square;stroke-linejoin:miter;stroke-width:0.8;"/>
   </g>
   <g id="patch_260">
    <path d="M 414.72 307.584 
L 414.72 41.472 
" style="fill:none;stroke:#000000;stroke-linecap:square;stroke-linejoin:miter;stroke-width:0.8;"/>
   </g>
   <g id="patch_261">
    <path d="M 57.6 307.584 
L 414.72 307.584 
" style="fill:none;stroke:#000000;stroke-linecap:square;stroke-linejoin:miter;stroke-width:0.8;"/>
   </g>
   <g id="patch_262">
    <path d="M 57.6 41.472 
L 414.72 41.472 
" style="fill:none;stroke:#000000;stroke-linecap:square;stroke-linejoin:miter;stroke-width:0.8;"/>
   </g>
   <g id="text_16">
    <!-- ../rules/all.rules -->
    <g transform="translate(189.879375 35.472)scale(0.12 -0.12)">
     <defs>
      <path d="M 1625 4666 
L 2156 4666 
L 531 -594 
L 0 -594 
L 1625 4666 
z
" id="DejaVuSans-2f" transform="scale(0.015625)"/>
      <path d="M 603 4863 
L 1178 4863 
L 1178 0 
L 603 0 
L 603 4863 
z
" id="DejaVuSans-6c" transform="scale(0.015625)"/>
      <path d="M 2834 3397 
L 2834 2853 
Q 2591 2978 2328 3040 
Q 2066 3103 1784 3103 
Q 1356 3103 1142 2972 
Q 928 2841 928 2578 
Q 928 2378 1081 2264 
Q 1234 2150 1697 2047 
L 1894 2003 
Q 2506 1872 2764 1633 
Q 3022 1394 3022 966 
Q 3022 478 2636 193 
Q 2250 -91 1575 -91 
Q 1294 -91 989 -36 
Q 684 19 347 128 
L 347 722 
Q 666 556 975 473 
Q 1284 391 1588 391 
Q 1994 391 2212 530 
Q 2431 669 2431 922 
Q 2431 1156 2273 1281 
Q 2116 1406 1581 1522 
L 1381 1569 
Q 847 1681 609 1914 
Q 372 2147 372 2553 
Q 372 3047 722 3315 
Q 1072 3584 1716 3584 
Q 2034 3584 2315 3537 
Q 2597 3491 2834 3397 
z
" id="DejaVuSans-73" transform="scale(0.015625)"/>
      <path d="M 2194 1759 
Q 1497 1759 1228 1600 
Q 959 1441 959 1056 
Q 959 750 1161 570 
Q 1363 391 1709 391 
Q 2188 391 2477 730 
Q 2766 1069 2766 1631 
L 2766 1759 
L 2194 1759 
z
M 3341 1997 
L 3341 0 
L 2766 0 
L 2766 531 
Q 2569 213 2275 61 
Q 1981 -91 1556 -91 
Q 1019 -91 701 211 
Q 384 513 384 1019 
Q 384 1609 779 1909 
Q 1175 2209 1959 2209 
L 2766 2209 
L 2766 2266 
Q 2766 2663 2505 2880 
Q 2244 3097 1772 3097 
Q 1472 3097 1187 3025 
Q 903 2953 641 2809 
L 641 3341 
Q 956 3463 1253 3523 
Q 1550 3584 1831 3584 
Q 2591 3584 2966 3190 
Q 3341 2797 3341 1997 
z
" id="DejaVuSans-61" transform="scale(0.015625)"/>
     </defs>
     <use xlink:href="#DejaVuSans-2e"/>
     <use x="31.787109" xlink:href="#DejaVuSans-2e"/>
     <use x="63.574219" xlink:href="#DejaVuSans-2f"/>
     <use x="97.265625" xlink:href="#DejaVuSans-72"/>
     <use x="138.378906" xlink:href="#DejaVuSans-75"/>
     <use x="201.757812" xlink:href="#DejaVuSans-6c"/>
     <use x="229.541016" xlink:href="#DejaVuSans-65"/>
     <use x="291.064453" xlink:href="#DejaVuSans-73"/>
     <use x="343.164062" xlink:href="#DejaVuSans-2f"/>
     <use x="376.855469" xlink:href="#DejaVuSans-61"/>
     <use x="438.134766" xlink:href="#DejaVuSans-6c"/>
     <use x="465.917969" xlink:href="#DejaVuSans-6c"/>
     <use x="493.701172" xlink:href="#DejaVuSans-2e"/>
     <use x="525.488281" xlink:href="#DejaVuSans-72"/>
     <use x="566.601562" xlink:href="#DejaVuSans-75"/>
     <use x="629.980469" xlink:href="#DejaVuSans-6c"/>
     <use x="657.763672" xlink:href="#DejaVuSans-65"/>
     <use x="719.287109" xlink:href="#DejaVuSans-73"/>
    </g>
   </g>
  </g>
 </g>
 <defs>
  <clipPath id="pe55c0e5bdd">
   <rect height="266.112" width="357.12" x="57.6" y="41.472"/>
  </clipPath>
 </defs>
</svg>
